<?xml version="1.0" encoding="utf-8"?>
<!-- Generator: Adobe Illustrator 23.0.1, SVG Export Plug-In . SVG Version: 6.00 Build 0)  -->
<svg version="1.1" id="Capa_1" xmlns="http://www.w3.org/2000/svg" xmlns:xlink="http://www.w3.org/1999/xlink" x="0px" y="0px"
	 viewBox="0 0 512 512" style="enable-background:new 0 0 512 512;" xml:space="preserve">
<style type="text/css">
	.st0{fill:#2B2B2B;}
</style>
<path class="st0" d="M256,50c5.5,0,10-4.5,10-10V10c0-5.5-4.5-10-10-10s-10,4.5-10,10v30C246,45.5,250.5,50,256,50z"/>
<path class="st0" d="M466,266h36c5.5,0,10-4.5,10-10s-4.5-10-10-10h-36c-5.5,0-10,4.5-10,10C456,261.5,460.5,266,466,266z"/>
<path class="st0" d="M10,266h36c5.5,0,10-4.5,10-10s-4.5-10-10-10H10c-5.5,0-10,4.5-10,10C0,261.5,4.5,266,10,266z"/>
<path class="st0" d="M411.6,108.6l21.2-21.2c3.9-3.9,3.9-10.2,0-14.1c-3.9-3.9-10.2-3.9-14.1,0l-21.2,21.2c-3.9,3.9-3.9,10.2,0,14.1
	C401.3,112.5,407.7,112.5,411.6,108.6z"/>
<path class="st0" d="M100.4,108.6c3.9,3.9,10.2,3.9,14.1,0c3.9-3.9,3.9-10.2,0-14.1L93.4,73.2c-3.9-3.9-10.2-3.9-14.1,0
	c-3.9,3.9-3.9,10.2,0,14.1L100.4,108.6z"/>
<path class="st0" d="M111,241v75c0,54.8,44.1,86.3,60,95.8V502c0,5.5,4.5,10,10,10h30c5.5,0,10-4.5,10-10s-4.5-10-10-10h-20v-86
	c0-3.8-2.1-7.2-5.5-8.9c-0.5-0.3-54.5-28.1-54.5-81.1v-75c0-11,9-20,20-20h109c-4.6,22.8-24.8,40-49,40h-30c-5.5,0-10,4.5-10,10
	s4.5,10,10,10c44.1,0,80,35.9,80,80c0,5.5,4.5,10,10,10s10-4.5,10-10c0-27.6,22.4-50,50-50c5.5,0,10-4.5,10-10s-4.5-10-10-10
	c-24.1,0-45.4,12.2-58,30.8c-7.9-18.6-21.3-34.2-38.1-45c17.4-6.3,31.6-19.4,39.4-36c7.1,6.3,16.4,10.2,26.7,10.2c2.6,0,5.2,0,7.6,0
	c4.7,0,9.3-0.1,13.5-0.9c4.1,17.7,20,30.9,39,30.9c7.3,0,14.1-2,20-5.4V316c0,52.9-53.9,80.8-54.5,81.1c-3.4,1.7-5.5,5.2-5.5,8.9v86
	h-20c-5.5,0-10,4.5-10,10s4.5,10,10,10h30c5.5,0,10-4.5,10-10v-90.2c15.9-9.6,60-41,60-95.8c0-19.9,0-94.4,0-126
	c0-22.1-17.9-40-40-40c-7.4,0-14.3,2-20.3,5.5c-2.2-20-19.2-35.5-39.7-35.5c-7.4,0-14.3,2-20.3,5.5c-2.2-20-19.2-35.5-39.7-35.5
	s-37.5,15.6-39.7,35.5c-5.9-3.5-12.9-5.5-20.3-5.5c-22.1,0-40,17.9-40,40v42.3C123.8,206.7,111,222.4,111,241L111,241z M361,170
	c11,0,20,9,20,20v51c0,11-9,20-20,20s-20-9-20-20v-51C341,179,350,170,361,170z M301,140c11,0,20,9,20,20v66c0,2.8-0.6,3.6-0.6,3.6
	c-1.5,1.5-10.2,1.4-15.4,1.4c-1.3,0-2.7,0-4,0c-11,0-20-9-20-20v-51C281,149,290,140,301,140z M221,130c0-11,9-20,20-20s20,9,20,20
	v71h-40V130z M181,140c11,0,20,9,20,20v41h-40v-41C161,149,170,140,181,140z"/>
</svg>
