<?xml version="1.0" encoding="utf-8"?>
<!-- Generator: Adobe Illustrator 23.0.1, SVG Export Plug-In . SVG Version: 6.00 Build 0)  -->
<svg version="1.1" id="Capa_1" xmlns="http://www.w3.org/2000/svg" xmlns:xlink="http://www.w3.org/1999/xlink" x="0px" y="0px"
	 viewBox="0 0 307.1 307.1" style="enable-background:new 0 0 307.1 307.1;" xml:space="preserve">
<style type="text/css">
	.st0{fill:#2B2B2B;}
</style>
<path class="st0" d="M213.7,93l-33.5-52c1.3-1.1,2.1-2.7,2.1-4.6V6c0-3.3-2.7-6-6-6h-45.7c-3.3,0-6,2.7-6,6v30.5
	c0,1.8,0.8,3.5,2.1,4.6L93.3,93c-0.6,1-1,2.1-1,3.3v45.5V212v70.7c0,13.4,10.9,24.4,24.4,24.4c7.3,0,13.9-3.2,18.4-8.4
	c4.5,5.1,11.1,8.4,18.4,8.4c7.3,0,13.9-3.2,18.4-8.4c4.5,5.1,11.1,8.4,18.4,8.4c13.4,0,24.4-10.9,24.4-24.4V212v-70.2V96.3
	C214.7,95.1,214.4,94,213.7,93z M136.7,12h33.7v18.5h-0.2h-33.2h-0.2L136.7,12L136.7,12z M140.2,42.5h26.7L202.7,98v37.8h-98.3V98
	L140.2,42.5z M202.7,206h-98.3v-58.2h98.3V206z M190.3,295.1c-6.8,0-12.4-5.6-12.4-12.4c0-3.3-2.7-6-6-6c-3.3,0-6,2.7-6,6
	c0,6.8-5.6,12.4-12.4,12.4c-6.8,0-12.4-5.6-12.4-12.4c0-3.3-2.7-6-6-6c-3.3,0-6,2.7-6,6c0,6.8-5.6,12.4-12.4,12.4
	c-6.8,0-12.4-5.6-12.4-12.4V218h98.3v64.7C202.7,289.5,197.1,295.1,190.3,295.1z"/>
</svg>
