<?xml version="1.0" encoding="utf-8"?>
<!-- Generator: Adobe Illustrator 23.0.1, SVG Export Plug-In . SVG Version: 6.00 Build 0)  -->
<svg version="1.1" id="Calque_1" xmlns="http://www.w3.org/2000/svg" xmlns:xlink="http://www.w3.org/1999/xlink" x="0px" y="0px"
	 viewBox="0 0 512 512" style="enable-background:new 0 0 512 512;" xml:space="preserve">
<style type="text/css">
	.st0{fill:#2B2B2B;}
</style>
<path class="st0" d="M470.5,402.3c-2.8-2.1-4.5-5.6-4.5-9.3V331c0-56-21.8-108.7-61.4-148.4c-21-21-45.6-37-72.5-47.5
	c33.9-22.5,52.1-58.3,52.1-104c0-17.2-14-31.2-31.2-31.2c-25.8,0-53.7,13-74.6,34.9c-7.5,7.8-15.6,18.3-22.4,31.9
	c-6.7-14.1-14.9-24.8-22.4-32.6C213.3,12.7,185.3,0,158.9,0c-17.2,0-31.2,14-31.2,31.2c0,45.8,18.3,81.7,52.4,104.2
	c-26.4,10.4-50.7,26.3-71.5,47.1C68.2,222.8,46,276.1,46,332.7v60.3c0,3.8-1.7,7.3-4.5,9.3C25.5,413.8,16,432.4,16,452
	c0,33.1,26.9,60,60,60h360c33.1,0,60-26.9,60-60C496,432.4,486.5,413.8,470.5,402.3z M300.1,55.6c15.2-15.8,35.5-25.6,53-25.6
	c0.7,0,1.2,0.5,1.2,1.2c0,46.7-22.3,77.8-66.4,92.2c-5.4-0.8-10.9-1.4-16.5-1.8C274.5,88.9,288.3,67.9,300.1,55.6z M157.7,31.2
	c0-0.6,0.5-1.2,1.2-1.2c18.4,0,38.2,9.3,53,24.8c11.5,12.1,25,33.1,28,66.8c-5.3,0.4-10.5,1-15.7,1.8C180.1,109,157.7,78,157.7,31.2
	z M436,482H76c-16.5,0-30-13.5-30-30c0-9.9,5-19.6,13.1-25.4c10.6-7.7,16.9-20.3,16.9-33.6v-60.3c0-48.5,19.1-94.3,53.8-128.9
	c34.1-34,78.9-52.8,126.2-52.8h0.3c48,0.1,93.1,18.9,127.1,52.8S436,283,436,331v61.9c0,13.4,6.3,25.9,16.9,33.6
	c8.1,5.8,13.1,15.6,13.1,25.4C466,468.5,452.5,482,436,482z"/>
<path class="st0" d="M336.7,282.4H175.3c-8.3,0-15,6.7-15,15c0,8.3,6.7,15,15,15h161.3c8.3,0,15-6.7,15-15
	C351.7,289.1,344.9,282.4,336.7,282.4z"/>
<path class="st0" d="M306.7,338.4H205.3c-8.3,0-15,6.7-15,15c0,8.3,6.7,15,15,15h101.3c8.3,0,15-6.7,15-15
	C321.7,345.1,314.9,338.4,306.7,338.4z"/>
</svg>
